<svg id="Layer_1" data-name="Layer 1" xmlns="http://www.w3.org/2000/svg" viewBox="0 0 512 512"><defs><style>.cls-1{fill:#d1e1e8;}.cls-2{fill:#141f38;}.cls-3{fill:#5ecaef;}.cls-4{fill:#f9c882;}</style></defs><title>phone-message-filled</title><path class="cls-1" d="M387.28,111.59V72.21A65.64,65.64,0,0,0,321.64,6.56H190.36a65.64,65.64,0,0,0-65.64,65.64v39.38Z"/><path class="cls-2" d="M393.85,118.15H118.15V72.21A72.29,72.29,0,0,1,190.36,0H321.64a72.29,72.29,0,0,1,72.21,72.21ZM131.28,105H380.72V72.21a59.15,59.15,0,0,0-59.08-59.08H190.36a59.15,59.15,0,0,0-59.08,59.08Z"/><path class="cls-1" d="M124.72,400.41v39.38a65.64,65.64,0,0,0,65.64,65.64H321.64a65.64,65.64,0,0,0,65.64-65.64V400.41Z"/><path class="cls-2" d="M321.64,512H190.36a72.29,72.29,0,0,1-72.21-72.21V393.85H393.85v45.95A72.29,72.29,0,0,1,321.64,512ZM131.28,407v32.82a59.15,59.15,0,0,0,59.08,59.08H321.64a59.15,59.15,0,0,0,59.08-59.08V407Z"/><rect class="cls-3" x="124.72" y="111.59" width="262.56" height="288.82"/><path class="cls-2" d="M387.28,407H124.72a6.56,6.56,0,0,1-6.56-6.56V111.59a6.56,6.56,0,0,1,6.56-6.56H387.28a6.56,6.56,0,0,1,6.56,6.56V400.41A6.56,6.56,0,0,1,387.28,407Zm-256-13.13H380.72V118.15H131.28Z"/><circle class="cls-2" cx="256" cy="452.92" r="13.13"/><path class="cls-2" d="M269.13,65.64H242.87a6.56,6.56,0,1,1,0-13.13h26.26a6.56,6.56,0,1,1,0,13.13Z"/><rect class="cls-4" x="190.36" y="203.49" width="131.28" height="105.03" rx="32.82" ry="32.82"/><path class="cls-2" d="M288.82,315.08H223.18a39.43,39.43,0,0,1-39.38-39.38V236.31a39.43,39.43,0,0,1,39.38-39.38h65.64a39.43,39.43,0,0,1,39.38,39.38v39.38A39.43,39.43,0,0,1,288.82,315.08Zm-65.64-105a26.29,26.29,0,0,0-26.26,26.26v39.38a26.29,26.29,0,0,0,26.26,26.26h65.64a26.29,26.29,0,0,0,26.26-26.26V236.31a26.29,26.29,0,0,0-26.26-26.26Z"/><path class="cls-2" d="M256,262.56a6.56,6.56,0,0,1-3.81-1.22l-57.63-41.16a6.56,6.56,0,1,1,7.63-10.69L256,247.93l53.82-38.43a6.56,6.56,0,1,1,7.63,10.69l-57.63,41.16A6.56,6.56,0,0,1,256,262.56Z"/></svg>
