<svg id="Layer_1" data-name="Layer 1" xmlns="http://www.w3.org/2000/svg" xmlns:xlink="http://www.w3.org/1999/xlink" viewBox="0 0 512 512"><defs><linearGradient id="linear-gradient" x1="256" y1="512" x2="256" gradientUnits="userSpaceOnUse"><stop offset="0" stop-color="#458d34"/><stop offset="1" stop-color="#8bc53f"/></linearGradient></defs><title>mail</title><path d="M412.3,0H99.7A99.69,99.69,0,0,0,0,99.7V412.3A99.69,99.69,0,0,0,99.7,512H412.3A99.7,99.7,0,0,0,512,412.3V99.7A99.71,99.71,0,0,0,412.3,0Z" fill="url(#linear-gradient)"/><path d="M431.94,2l-295,111.46a55,55,0,0,0-24.94,19s-17.87,22.81-7.21,52.19L175.21,371c2.81,7.42,28.66,46,71.2,32.13L512,302.79V99.7A99.73,99.73,0,0,0,431.94,2Z" fill="#21632c"/><path d="M498.78,50.23,511.5,89.72A98.84,98.84,0,0,0,498.78,50.23Z" fill="#70090a"/><path d="M470.57,18.91c-.73-.52-1.41-1.1-2.16-1.61A31.1,31.1,0,0,0,459,18.66L148.72,118.54a31.45,31.45,0,0,0-14.8,10.16l208.63,61.91ZM486.1,32.83,398.7,166,512,224.1V99.7A99.21,99.21,0,0,0,486.1,32.83ZM360.33,224.45l-4.45,6.77-7.62-2.76-56.79-20.66L209.21,368.22a31.3,31.3,0,0,0,20,.31l282.8-91V241.38L390.23,178.91ZM126.89,148a31.46,31.46,0,0,0,1.38,10.43l61.07,189.69a31.3,31.3,0,0,0,6.92,11.7l80.65-157.27Z" fill="#231f20"/><path d="M470.57,18.91c-.73-.52-1.41-1.1-2.16-1.61A31.1,31.1,0,0,0,459,18.66L148.72,118.54a31.45,31.45,0,0,0-14.8,10.16l208.63,61.91ZM486.1,32.83,398.7,166,512,224.1V99.7A99.21,99.21,0,0,0,486.1,32.83ZM360.33,224.45l-4.45,6.77-7.62-2.76-56.79-20.66L209.21,368.22a31.3,31.3,0,0,0,20,.31l282.8-91V241.38L390.23,178.91ZM126.89,148a31.46,31.46,0,0,0,1.38,10.43l61.07,189.69a31.3,31.3,0,0,0,6.92,11.7l80.65-157.27Z" fill="#fff"/></svg>
