<?xml version="1.0" encoding="iso-8859-1"?>
<!-- Generator: Adobe Illustrator 24.1.2, SVG Export Plug-In . SVG Version: 6.00 Build 0)  -->
<svg version="1.1" baseProfile="basic" id="&#x421;&#x43B;&#x43E;&#x439;_1"
	 xmlns="http://www.w3.org/2000/svg" xmlns:xlink="http://www.w3.org/1999/xlink" x="0px" y="0px" viewBox="0 0 32 32"
	 xml:space="preserve">
<path marker-start="none" marker-end="none" style="fill-rule:evenodd;clip-rule:evenodd;fill:#E41E2F;" d="M17.003,23.003h-2v-2h-2
	v-2h-2v-2h-3v-8h3v2h2v2h2v2h2v-2h2v-2h2v-2h3v8h-3v2h-2v2h-2V23.003z"/>
<path marker-start="none" marker-end="none" style="fill-rule:evenodd;clip-rule:evenodd;fill:#B4252C;" d="M3.003,11.003v-4h2v-2h2
	v2h2v8l-2,2l-3-3v-2L3.003,11.003z"/>
<path marker-start="none" marker-end="none" style="fill-rule:evenodd;clip-rule:evenodd;fill:#589BD4;" d="M3.003,25.003v-14h2v2h2
	v2h2v12h-4v-2H3.003z"/>
<path marker-start="none" marker-end="none" style="fill-rule:evenodd;clip-rule:evenodd;fill:#FCC201;" d="M29.003,11.003v-4h-2v-2
	h-2v2h-2v8l2,2l3-3v-2L29.003,11.003z"/>
<path marker-start="none" marker-end="none" style="fill-rule:evenodd;clip-rule:evenodd;fill:#00953F;" d="M29.003,25.003v-14h-2v2
	h-2v2h-2v12h4v-2H29.003z"/>
</svg>