<svg id="Layer_1" data-name="Layer 1" xmlns="http://www.w3.org/2000/svg" viewBox="0 0 512 512"><defs><style>.cls-1{fill:#d1e1e8;}.cls-2{fill:#141f38;}</style></defs><title>analog-phone-signal-filled</title><path class="cls-1" d="M367.59,347.9h51.2a34.13,34.13,0,0,0,34.13-34.13V255.34a25.6,25.6,0,0,0-25.6-25.6h-67a25.6,25.6,0,0,0-25.6,25.6v5.89c-66.13-13.92-118.22-67.94-131.64-136.52h1a25.6,25.6,0,0,0,25.6-25.6v-67a25.6,25.6,0,0,0-25.6-25.6H145.72A34.13,34.13,0,0,0,111.59,40.7V91.9c0,141.38,114.62,256,256,256"/><path class="cls-2" d="M418.79,354.46h-51.2C222.81,354.46,105,236.68,105,91.9V40.7A40.74,40.74,0,0,1,145.72,0h58.42a32.2,32.2,0,0,1,32.16,32.16v67a32.22,32.22,0,0,1-25.21,31.41C225.49,190.75,270.45,237.68,328.29,253a32.21,32.21,0,0,1,32.08-29.78h67a32.2,32.2,0,0,1,32.16,32.16v58.42A40.74,40.74,0,0,1,418.79,354.46ZM145.72,13.13A27.6,27.6,0,0,0,118.15,40.7V91.9c0,137.54,111.9,249.44,249.44,249.44h51.2a27.6,27.6,0,0,0,27.57-27.57V255.34a19.06,19.06,0,0,0-19-19h-67a19.06,19.06,0,0,0-19,19v14l-7.92-1.67C264.36,253.12,210.69,197.51,196.68,126l-1.53-7.82h9a19.06,19.06,0,0,0,19-19v-67a19.06,19.06,0,0,0-19-19Z"/><path class="cls-2" d="M449,170.67a6.56,6.56,0,0,1-6.43-5.26A189.84,189.84,0,0,0,294.08,16.94a6.56,6.56,0,0,1,2.62-12.87A202.94,202.94,0,0,1,455.42,162.79a6.56,6.56,0,0,1-6.44,7.87Z"/><path class="cls-2" d="M395,170.67a6.57,6.57,0,0,1-6.31-4.78,138.5,138.5,0,0,0-95-95,6.56,6.56,0,1,1,3.57-12.63A151.71,151.71,0,0,1,401.28,162.32a6.57,6.57,0,0,1-4.53,8.1A6.65,6.65,0,0,1,395,170.67Z"/><path class="cls-2" d="M339,170.67a6.57,6.57,0,0,1-5.94-3.75,85.55,85.55,0,0,0-40.53-40.53,6.56,6.56,0,0,1,5.62-11.87A98.7,98.7,0,0,1,345,161.29a6.56,6.56,0,0,1-5.93,9.38Z"/><path class="cls-2" d="M124.71,512a6.53,6.53,0,0,1-3.92-1.31l-38-28.43a6.54,6.54,0,0,1-.76-.66,78.81,78.81,0,0,1,91.73-127.88l7.36,5.35,128.14,92.65a45.46,45.46,0,0,0,25.53,7.77,46,46,0,0,0,45.95-45.95V347.9a6.56,6.56,0,1,1,13.13,0v65.64a59,59,0,0,1-92.1,49l-2.89-2.06L166.34,364.56a65.67,65.67,0,0,0-76,106.86,7.07,7.07,0,0,1,.61.55l37.7,28.22A6.56,6.56,0,0,1,124.71,512Z"/></svg>
